 <svg width="33" height="32" viewBox="0 0 33 32" fill="none" xmlns="http://www.w3.org/2000/svg">
            <path d="M29.6861 9.6001H2.44054V14.4948H29.6861V9.6001Z" stroke="white" stroke-width="2" stroke-linejoin="round"/>
            <path d="M27.8071 14.4956H4.21516V29.9788H27.8071V14.4956Z" stroke="white" stroke-width="2" stroke-linejoin="round"/>
            <path d="M17.9945 10H14.4453V29.0793H17.9945V10Z" fill="white"/>
            <path d="M16.7379 9.34575C18.0389 8.43126 17.7931 5.99586 16.189 3.90615C14.5848 1.81644 12.2297 0.863759 10.9287 1.77825C9.62774 2.69275 9.87352 5.12812 11.4777 7.21783C13.0818 9.30754 15.4369 10.2602 16.7379 9.34575Z" stroke="white" stroke-width="2" stroke-linejoin="round"/>
            <path d="M20.7802 7.08794C22.3748 4.99155 22.6095 2.55516 21.3044 1.64611C19.9992 0.737053 17.6485 1.69958 16.0539 3.79597C14.4593 5.89236 14.2246 8.32873 15.5298 9.23778C16.8349 10.1468 19.1856 9.18433 20.7802 7.08794Z" stroke="white" stroke-width="2" stroke-linejoin="round"/>
            </svg>