<svg width="32" height="32" viewBox="0 0 32 32" fill="none" xmlns="http://www.w3.org/2000/svg">
<g clip-path="url(#clip0_377_504)">
<g clip-path="url(#clip1_377_504)">
<path d="M13 20.6666H19C19.5467 20.6666 20 20.2133 20 19.6666C20 19.12 19.5467 18.6666 19 18.6666H13C12.4533 18.6666 12 19.12 12 19.6666C12 20.2133 12.4533 20.6666 13 20.6666Z" fill="white"/>
<path d="M20.6667 14.6666C21.7712 14.6666 22.6667 13.7712 22.6667 12.6666C22.6667 11.5621 21.7712 10.6666 20.6667 10.6666C19.5621 10.6666 18.6667 11.5621 18.6667 12.6666C18.6667 13.7712 19.5621 14.6666 20.6667 14.6666Z" fill="white"/>
<path d="M11.3333 14.6666C12.4379 14.6666 13.3333 13.7712 13.3333 12.6666C13.3333 11.5621 12.4379 10.6666 11.3333 10.6666C10.2288 10.6666 9.33334 11.5621 9.33334 12.6666C9.33334 13.7712 10.2288 14.6666 11.3333 14.6666Z" fill="white"/>
<path d="M15.9867 2.66663C8.62666 2.66663 2.66666 8.63996 2.66666 16C2.66666 23.36 8.62666 29.3333 15.9867 29.3333C23.36 29.3333 29.3333 23.36 29.3333 16C29.3333 8.63996 23.36 2.66663 15.9867 2.66663ZM16 26.6666C10.1067 26.6666 5.33333 21.8933 5.33333 16C5.33333 10.1066 10.1067 5.33329 16 5.33329C21.8933 5.33329 26.6667 10.1066 26.6667 16C26.6667 21.8933 21.8933 26.6666 16 26.6666Z" fill="white"/>
</g>
</g>
<defs>
<clipPath id="clip0_377_504">
<rect width="32" height="32" fill="white"/>
</clipPath>
<clipPath id="clip1_377_504">
<rect width="32" height="32" fill="white"/>
</clipPath>
</defs>
</svg>
